<?xml version="1.0" standalone="no"?>
<!DOCTYPE svg PUBLIC "-//W3C//DTD SVG 20010904//EN"
 "http://www.w3.org/TR/2001/REC-SVG-20010904/DTD/svg10.dtd">
<svg version="1.0" xmlns="http://www.w3.org/2000/svg"
 width="550.000000pt" height="550.000000pt" viewBox="0 0 550.000000 550.000000"
 preserveAspectRatio="xMidYMid meet">
<metadata>
Created by potrace 1.14, written by Peter Selinger 2001-2017
</metadata>
<g transform="translate(0.000000,550.000000) scale(0.100000,-0.100000)"
fill="#000000" stroke="none">
<path d="M3117 5484 c-1 -1 -112 -5 -247 -9 -608 -16 -725 -36 -1005 -170
-316 -151 -617 -427 -797 -733 -43 -73 -112 -201 -114 -212 0 -3 -12 -30 -26
-61 -61 -134 -126 -341 -154 -489 -9 -47 -18 -92 -19 -101 -20 -101 -26 -339
-12 -436 9 -66 29 -142 57 -218 12 -33 24 -69 28 -80 3 -10 25 -60 50 -110 83
-170 185 -303 307 -400 28 -22 52 -42 55 -45 24 -24 195 -124 271 -158 65 -29
176 -68 220 -78 29 -6 112 -21 154 -29 87 -14 246 -20 578 -20 358 0 369 1
380 20 7 11 35 106 63 210 28 105 56 209 63 233 l12 43 138 -143 c77 -79 286
-291 465 -473 179 -181 326 -332 326 -336 0 -16 -1286 -892 -1341 -913 -16 -5
-32 -7 -36 -3 -6 6 3 62 32 187 2 8 10 49 19 91 9 42 18 83 20 90 11 31 13 77
5 90 -7 12 -107 14 -596 15 -323 0 -596 -1 -605 -4 -16 -4 -29 -35 -42 -102
-4 -24 -35 -153 -97 -410 -17 -69 -33 -136 -35 -150 -7 -37 -52 -229 -64 -270
-16 -58 -48 -213 -51 -245 -2 -17 0 -36 5 -43 6 -10 125 -11 594 -7 907 9
1374 19 1434 30 13 3 44 7 70 10 54 6 208 57 334 111 366 157 705 467 935 855
158 267 226 464 263 764 13 107 14 396 2 480 -29 191 -77 314 -193 495 -132
204 -278 338 -489 448 -182 94 -345 128 -704 147 -58 3 -134 7 -170 10 -36 2
-164 7 -286 11 -196 5 -223 4 -237 -11 -14 -14 -30 -58 -42 -115 -18 -83 -86
-343 -95 -359 -18 -35 -9 -43 -401 360 -419 429 -448 460 -476 501 -22 33 -24
40 -13 72 15 46 12 43 640 468 582 393 637 429 673 435 20 3 20 2 6 -57 -6
-25 -13 -55 -15 -67 -2 -12 -15 -69 -28 -125 -38 -160 -41 -192 -20 -209 14
-12 104 -14 575 -14 525 0 560 1 593 19 23 12 39 31 50 60 12 31 111 420 131
515 2 9 20 81 40 161 21 80 38 150 39 155 1 6 5 19 9 30 3 11 8 31 11 45 3 14
7 35 10 48 4 12 8 30 10 40 2 9 11 45 20 78 9 34 16 67 16 74 0 9 -150 11
-646 8 -355 -1 -646 -4 -647 -4z"/>
</g>
</svg>
